<?xml version="1.0" encoding="utf-8"?>
<!-- Generator: Adobe Illustrator 14.0.0, SVG Export Plug-In . SVG Version: 6.00 Build 43363)  -->
<!DOCTYPE svg PUBLIC "-//W3C//DTD SVG 1.1//EN" "http://www.w3.org/Graphics/SVG/1.1/DTD/svg11.dtd">
<svg version="1.1" id="SVG" image-rendering="optimizeSpeed"
	 xmlns="http://www.w3.org/2000/svg" xmlns:xlink="http://www.w3.org/1999/xlink" x="0px" y="0px" width="65.334px"
	 height="65.267px" viewBox="284.833 46.833 65.334 65.267" enable-background="new 284.833 46.833 65.334 65.267"
	 xml:space="preserve">
<path fill="none" d="z"/>
<g id="Layer.__201">
	<g id="shape">
		<path id="path" fill="#873D63" d="M363.55,40.1h-5.5v5.5h5.5V40.1z M395.05,106.1h-5v5h5V106.1z M258.05,35.1h-8v8h8V35.1z
			 M272.05,112.1h-6v6h6V112.1z"/>
		<path id="path1" fill="none" stroke="#000000" stroke-width="0.1" stroke-linecap="round" stroke-linejoin="round" d="
			M363.55,40.1h-5.5v5.5h5.5V40.1z"/>
		<path id="path3" fill="none" stroke="#000000" stroke-width="0.1" stroke-linecap="round" stroke-linejoin="round" d="
			M395.05,106.1h-5v5h5V106.1z"/>
		<path id="path6" fill="none" stroke="#000000" stroke-width="0.1" stroke-linecap="round" stroke-linejoin="round" d="
			M258.05,35.1h-8v8h8V35.1z"/>
		<path id="path9" fill="none" stroke="#000000" stroke-width="0.1" stroke-linecap="round" stroke-linejoin="round" d="
			M272.05,112.1h-6v6h6V112.1z"/>
	</g>
	<g id="group">
		<path id="path11" fill="#DDDDDD" d="M335.05,72.55c0.034-6.767-2.333-12.533-7.1-17.3c-4.8-4.8-10.601-7.2-17.4-7.2
			c-6.75,0-12.5,2.4-17.3,7.2c-4.75,4.75-7.15,10.55-7.2,17.3c0.05,6.75,2.45,12.55,7.25,17.35c4.75,4.75,10.5,7.15,17.25,7.15
			c4.851,0,9.25-1.25,13.101-3.7l18.05,18.05l7.75-7.75L331.4,85.6C333.85,81.75,335.05,77.4,335.05,72.55z M320.5,62.7
			c2.75,2.75,4.1,6.05,4.1,9.9c-0.05,2.15-0.5,4.2-1.35,6.05c-0.65,1.35-1.55,2.65-2.75,3.85c-1.15,1.15-2.45,2.05-3.8,2.7
			c-1.9,0.9-3.95,1.35-6.101,1.4c-3.85,0-7.149-1.35-9.899-4.1s-4.101-6.05-4.15-9.95c0.05-3.85,1.4-7.1,4.15-9.85s6-4.1,9.85-4.15
			C314.45,58.6,317.75,59.95,320.5,62.7z"/>
	</g>
</g>
<path fill="none" d="z"/>
</svg>
