
<svg xmlns="http://www.w3.org/2000/svg" version="1.1" xmlns:xlink="http://www.w3.org/1999/xlink" preserveAspectRatio="none" x="0px" y="0px" width="350px" height="350px" viewBox="0 0 350 350">
<defs>
<g id="Layer2_0_FILL">
<path fill="#EF2163" stroke="none" d="
M 298.75 51.25
Q 247.5 0 175 0 102.5 0 51.25 51.25 0 102.5 0 175 0 247.5 51.25 298.75 102.5 350 175 350 247.5 350 298.75 298.75 350 247.5 350 175 350 102.5 298.75 51.25 Z"/>
</g>

<g id="Layer1_0_FILL">
<path fill="#FFFFFF" stroke="none" d="
M 64.4 127.3
Q 59 132.85 59 140.8
L 59 210.15
Q 59 218 64.4 223.6 69.85 229.15 77.5 229.15 78.05 229.15 78.55 229.1
L 147.15 229.1
Q 147.8 229.15 148.55 229.15 156.3 229.3 161.75 223.85 167.15 218.45 167.05 210.7 167 202.9 161.4 197.3
L 91.85 127.75
Q 88.6 124.5 84.55 123.15 81.3 121.75 77.5 121.75 69.85 121.75 64.4 127.3 Z"/>
</g>

<g id="Layer1_1_FILL">
<path fill="#FFFFFF" stroke="none" d="
M 172.7 141.9
Q 168.1 141.9 164.3 143.8 161 145.1 158.3 147.8 152.9 153.2 153 161 153.05 168.75 158.65 174.35
L 207.7 223.4
Q 213.25 228.95 221.05 229.05 228.85 229.15 234.25 223.75 234.65 223.35 234.95 222.95
L 283.45 174.45
Q 283.95 174.05 284.5 173.5 290.05 168.15 290.05 160.45 290.1 152.8 284.5 147.4 279 141.9 271 141.9
L 172.7 141.9 Z"/>
</g>
</defs>

<g transform="matrix( 1, 0, 0, 1, 0,0) ">
<use xlink:href="#Layer2_0_FILL"/>
</g>

<g transform="matrix( 1, 0, 0, 1, 0,0) ">
<use xlink:href="#Layer1_0_FILL"/>
</g>

<g transform="matrix( 1, 0, 0, 1, 0,0) ">
<use xlink:href="#Layer1_1_FILL"/>
</g>
</svg>
