<?xml version="1.0" encoding="utf-8"?>
<!-- Generator: Adobe Illustrator 14.0.0, SVG Export Plug-In . SVG Version: 6.00 Build 43363)  -->
<!DOCTYPE svg PUBLIC "-//W3C//DTD SVG 1.1//EN" "http://www.w3.org/Graphics/SVG/1.1/DTD/svg11.dtd">
<svg version="1.1" id="SVG" image-rendering="optimizeSpeed"
	 xmlns="http://www.w3.org/2000/svg" xmlns:xlink="http://www.w3.org/1999/xlink" x="0px" y="0px" width="41.65px"
	 height="33.451px" viewBox="187.167 -112.167 41.65 33.451" enable-background="new 187.167 -112.167 41.65 33.451"
	 xml:space="preserve">
<path fill="none" d="z"/>
<g id="Layer.__201">
	<g id="shape">
		<path id="path" fill="#873D63" d="M354.064-133.567h-5.5v5.5h5.5V-133.567z M385.564-67.567h-5v5h5V-67.567z M248.566-138.567h-8
			v8h8V-138.567z M262.566-61.567h-6.001v6h6.001V-61.567z"/>
		<path id="path1" fill="none" stroke="#000000" stroke-width="0.1" stroke-linecap="round" stroke-linejoin="round" d="
			M354.064-133.567h-5.5v5.5h5.5V-133.567z"/>
		<path id="path3" fill="none" stroke="#000000" stroke-width="0.1" stroke-linecap="round" stroke-linejoin="round" d="
			M385.564-67.567h-5v5h5V-67.567z"/>
		<path id="path6" fill="none" stroke="#000000" stroke-width="0.1" stroke-linecap="round" stroke-linejoin="round" d="
			M248.566-138.567h-8v8h8V-138.567z"/>
		<path id="path9" fill="none" stroke="#000000" stroke-width="0.1" stroke-linecap="round" stroke-linejoin="round" d="
			M262.566-61.567h-6.001v6h6.001V-61.567z"/>
	</g>
	<g id="group">
		<path id="path11" fill="#8F8F8F" fill-opacity="0.2" d="M197.967-95.517c0.3,0.434,0.45,1,0.45,1.7c0,2.351-1.3,4.9-3.95,7.55
			c-1.5,1.551-3.7,3.4-6.65,5.45l1.15,2.101c4.2-2.45,7.45-4.801,9.7-7.051c4.1-4.25,6.149-9,6.149-14.149
			c0-3.4-0.899-6.101-2.75-8.15c-1.85-2-4.149-3-7-3c-2.35,0-4.3,0.75-5.75,2.25c-1.449,1.5-2.149,3.5-2.149,5.95
			c0,2.3,0.7,4.15,2.1,5.5c1.4,1.35,3.101,2.05,5.05,2.05c0.15,0,0.5-0.149,0.95-0.399s0.851-0.351,1.2-0.351
			C197.117-96.066,197.617-95.866,197.967-95.517z M219.066-111.066c-2.35,0-4.3,0.75-5.75,2.25c-1.449,1.5-2.149,3.5-2.149,5.95
			c0,2.3,0.7,4.15,2.1,5.5c1.4,1.35,3.101,2.05,5.05,2.05c0.15,0,0.5-0.149,0.95-0.399s0.851-0.351,1.2-0.351
			c0.65,0,1.15,0.2,1.5,0.55c0.3,0.45,0.45,1,0.45,1.7c0,2.351-1.3,4.9-3.95,7.55c-1.5,1.551-3.7,3.4-6.65,5.45l1.15,2.101
			c4.2-2.45,7.45-4.801,9.7-7.051c4.1-4.25,6.149-9,6.149-14.149c0-3.4-0.899-6.101-2.75-8.15
			C224.217-110.066,221.917-111.066,219.066-111.066z"/>
	</g>
</g>
<path fill="none" d="z"/>
</svg>
